<svg xmlns="http://www.w3.org/2000/svg" viewBox="0 0 512 512" width="100%" height="100%">
  <defs>
    <radialGradient id="sphereGradLogoA" cx="50%" cy="30%" r="70%">
      <stop offset="0%" stop-color="#FFC58D" />
      <stop offset="50%" stop-color="#E25C30" />
      <stop offset="100%" stop-color="#E25C30" />
    </radialGradient>
    <linearGradient id="kittyBodyA" x1="0%" y1="0%" x2="0%" y2="100%">
      <stop offset="0%" stop-color="#FFB75E" />
      <stop offset="50%" stop-color="#F79625" />
      <stop offset="100%" stop-color="#DC7404" />
    </linearGradient>
    <linearGradient id="creamTummyA" x1="0%" y1="0%" x2="0%" y2="100%">
      <stop offset="0%" stop-color="#FFFDFC" />
      <stop offset="100%" stop-color="#FEF4DC" />
    </linearGradient>
    <linearGradient id="innerEarA" x1="0%" y1="0%" x2="0%" y2="100%">
      <stop offset="0%" stop-color="#FFA693" />
      <stop offset="100%" stop-color="#FF7762" />
    </linearGradient>
  </defs>

  <circle cx="256" cy="216" r="162" fill="url(#sphereGradLogoA)" />

  <g fill="#FFFFFF" stroke="#FFFFFF" stroke-width="22" stroke-linejoin="round" stroke-linecap="round" transform="translate(0, -38)">
    <path d="M 180 156 Q 146 88, 204 90 Q 212 90, 214 140 Z" />
    <path d="M 332 156 Q 366 88, 308 90 Q 300 90, 298 140 Z" />
    <ellipse cx="190" cy="354" rx="36" ry="24" />
    <ellipse cx="322" cy="354" rx="36" ry="24" />
    <circle cx="256" cy="245" r="115" />
    <circle cx="160" cy="252" r="24" />
    <ellipse cx="138" cy="178" rx="24" ry="20" transform="rotate(-15 138 178)" />
    <path d="M 138 178 L 160 252" stroke-width="32" />
    <circle cx="352" cy="252" r="24" />
    <path d="M 354 184 L 354 154 L 390 154 L 390 184 Z" stroke-width="32" />
    <path d="M 372 178 L 352 252" stroke-width="32" />
  </g>

  <g stroke="#3D211A" stroke-width="6.5" stroke-linejoin="round" stroke-linecap="round" transform="translate(0, -38)">
    <path d="M 180 156 C 160 110, 172 82, 198 88 C 212 91, 214 122, 214 140" fill="url(#kittyBodyA)" />
    <path d="M 188 152 C 176 122, 182 102, 198 104 C 206 105, 206 124, 206 138" fill="url(#innerEarA)" stroke="none" />
    <path d="M 332 156 C 352 110, 340 82, 314 88 C 300 91, 298 122, 298 140" fill="url(#kittyBodyA)" />
    <path d="M 324 152 C 336 122, 330 102, 314 104 C 306 105, 306 124, 306 138" fill="url(#innerEarA)" stroke="none" />
    <ellipse cx="190" cy="354" rx="30" ry="20" fill="#E67E22" />
    <ellipse cx="322" cy="354" rx="30" ry="20" fill="#E67E22" />
    <ellipse cx="256" cy="245" rx="114" ry="108" fill="url(#kittyBodyA)" />
    <rect x="251" y="138" width="10" height="26" rx="5" fill="#E26A00" stroke="none" />
    <rect x="235" y="142" width="9" height="22" rx="4.5" fill="#E26A00" stroke="none" />
    <rect x="268" y="142" width="9" height="22" rx="4.5" fill="#E26A00" stroke="none" />
    <path d="M 160 250 C 145 190, 367 190, 352 250 C 340 310, 172 310, 160 250 Z" fill="url(#creamTummyA)" stroke="none" />
    <ellipse cx="256" cy="225" rx="64" ry="46" fill="url(#creamTummyA)" stroke="none" />
    <ellipse cx="256" cy="285" rx="94" ry="76" fill="url(#creamTummyA)" />
    <line x1="248" y1="312" x2="264" y2="328" stroke="#D37E30" stroke-width="6" stroke-linecap="round" />
    <line x1="264" y1="312" x2="248" y2="328" stroke="#D37E30" stroke-width="6" stroke-linecap="round" />
    <circle cx="196" cy="214" r="17" fill="#FF715E" stroke="none" />
    <circle cx="316" cy="214" r="17" fill="#FF715E" stroke="none" />
    <path d="M 204 192 Q 220 174, 236 192" fill="none" stroke="#3D211A" stroke-width="7.5" stroke-linecap="round" />
    <path d="M 276 192 Q 292 174, 308 192" fill="none" stroke="#3D211A" stroke-width="7.5" stroke-linecap="round" />
    <path d="M 234 200 C 234 195, 278 195, 278 200 C 278 226, 234 226, 234 200 Z" fill="#3D211A" />
    <ellipse cx="256" cy="218" rx="14" ry="9" fill="#FF715E" stroke="none" />
    <path d="M 148 198 L 164 246" stroke="#3D211A" stroke-width="11" stroke-linecap="round" />
    <path d="M 148 198 L 164 246" stroke="#FFA25B" stroke-width="5.5" stroke-linecap="round" />
    <ellipse cx="138" cy="178" rx="18" ry="14" fill="#FFFBFA" transform="rotate(-15 138 178)" />
    <circle cx="160" cy="250" r="18" fill="url(#kittyBodyA)" />
    <path d="M 364 200 L 350 246" stroke="#3D211A" stroke-width="11" stroke-linecap="round" />
    <path d="M 364 200 L 350 246" stroke="#FFA25B" stroke-width="5.5" stroke-linecap="round" />
    <path d="M 354 182 L 354 154 C 354 150, 362 150, 362 154 L 362 174 L 368 174 L 368 154 C 368 150, 376 150, 376 154 L 376 174 L 382 174 L 382 154 C 382 150, 390 150, 390 154 L 390 182 C 390 193, 354 193, 354 182 Z" fill="#FFFBFA" />
    <circle cx="352" cy="250" r="18" fill="url(#kittyBodyA)" />
  </g>

  <text x="256" y="445" font-family="system-ui, sans-serif" font-size="34" font-weight="900" fill="#FFFFFF" text-anchor="middle" letter-spacing="4">q†H</text>
  <text x="256" y="471" font-family="system-ui, sans-serif" font-size="11.5" font-weight="800" fill="#FFFFFF" fill-opacity="0.8" text-anchor="middle" letter-spacing="4.5">BAOLEME APP</text>
</svg>
